<svg width="256" height="256" viewBox="0 0 256 256" fill="none" xmlns="http://www.w3.org/2000/svg">
<g clip-path="url(#clip0_235_1276)">
<path d="M40 0H216.347V89.0182C216.347 111.839 204.218 132.926 184.529 144.337L128.173 177L71.8182 144.337C52.1288 132.926 40 111.839 40 89.0182V0Z" fill="#FFDD2D"/>
<path fill-rule="evenodd" clip-rule="evenodd" d="M88.332 47.0264V74.5666C92.1103 70.3139 98.9798 67.4357 106.834 67.4357H115.37V99.4509C115.37 107.968 113.048 115.424 109.603 119.525H146.731C143.293 115.42 140.977 107.974 140.977 99.4672V67.4357H149.513C157.367 67.4357 164.236 70.3139 168.015 74.5666V47.0264H88.332Z" fill="#333333"/>
<path d="M49.1935 228.979C55.7345 230.835 58.6831 235.959 58.6831 241.084C58.6831 247.194 55.0818 252.319 49.3 254.503C46.4669 255.591 43.0831 255.92 38.5048 255.92H0V204H37.741C42.5369 204 45.9207 204.329 48.5362 205.199C54.5356 207.166 57.5907 211.744 57.5907 217.309C57.5907 222.979 53.8828 226.905 49.1935 228.979ZM35.6673 224.507C37.1948 224.507 38.3938 224.396 39.1576 224.072C41.1204 223.197 41.9952 221.669 41.9952 219.924C41.9952 218.179 41.1204 216.651 39.2642 215.999C38.3938 215.67 37.1948 215.563 35.6673 215.563H15.0538V224.507H35.6673ZM36.2135 243.921C37.741 243.921 38.94 243.815 39.8104 243.486C41.7732 242.722 42.648 241.195 42.648 239.343C42.648 237.593 41.7732 236.177 40.028 235.524C39.1576 235.196 37.9586 235.089 36.2135 235.089H15.0538V243.921H36.2135Z" fill="#333333"/>
<path d="M80.3741 248.393L77.4299 255.92H59.5386L80.8093 204H103.932L125.202 255.92H107.422L104.371 248.393H80.3741ZM84.2996 236.941H100.552L93.0255 215.999H91.8265L84.2996 236.941Z" fill="#333333"/>
<path d="M144.25 204L171.626 232.469V204H186.68V255.92H172.719L144.69 227.233V255.92H129.636V204H144.25Z" fill="#333333"/>
<path d="M211.718 236.288V255.92H195.9V204H211.718V223.526H216.079L235.165 204H255.019L229.711 228.872L256 255.92H234.947L216.079 236.288H211.718Z" fill="#333333"/>
</g>
<defs>
<clipPath id="clip0_235_1276">
<rect width="256" height="256" fill="white"/>
</clipPath>
</defs>
</svg>
