<svg width="256" height="256" viewBox="0 0 256 256" fill="none" xmlns="http://www.w3.org/2000/svg">
<path d="M51.6841 224.968C48.917 223.901 45.2981 223.58 41.3602 223.58H19.4333V216.746H57.1126V205H4V255.83H39.9761C44.979 255.83 48.7034 255.403 51.4715 254.334C57.3257 252.091 61.2637 246.646 61.2637 239.491C61.2637 232.23 57.5383 227.211 51.6841 224.968ZM44.0207 242.588C43.1693 242.909 41.9984 243.015 40.5078 243.015H19.4333V234.9H40.5078C42.2115 234.9 43.5945 235.007 44.6594 235.54C45.9364 236.181 46.5751 237.356 46.5751 238.85C46.5751 240.345 45.8304 241.947 44.0207 242.588Z" fill="#333333"/>
<path d="M104.764 205H82.106L61.2646 255.83H78.7931L81.6786 248.461H105.191L108.184 255.83H125.606L104.764 205ZM85.5259 237.249L92.9011 216.746H94.0764L101.451 237.249H85.5259Z" fill="#333333"/>
<path d="M145.449 236.929V255.83H130.109V205H145.449V223.581H170.101V205H185.442V255.83H170.101V236.929H145.449Z" fill="#333333"/>
<path d="M209.857 236.609V255.83H194.449V205H209.857V224.115H214.108L232.704 205H252.043L227.391 229.347L253 255.83H232.491L214.108 236.609H209.857Z" fill="#333333"/>
<path d="M38 0H218.332V91.0299C218.332 114.366 205.929 135.93 185.795 147.599L128.166 181L70.5372 147.599C50.4029 135.93 38 114.366 38 91.0299V0Z" fill="#FFDD2D"/>
<path fill-rule="evenodd" clip-rule="evenodd" d="M87.4243 48.0889V76.2515C91.2879 71.9027 98.3127 68.9594 106.345 68.9594H115.073V101.698C115.073 110.408 112.699 118.032 109.176 122.225H147.143C143.627 118.028 141.259 110.414 141.259 101.715V68.9594H149.987C158.019 68.9594 165.044 71.9027 168.908 76.2515V48.0889H87.4243Z" fill="#333333"/>
</svg>
