<svg width="256" height="256" viewBox="0 0 256 256" fill="none" xmlns="http://www.w3.org/2000/svg">
<g clip-path="url(#clip0_231_1267)">
<path d="M128 256C198.693 256 256 198.693 256 128C256 57.3074 198.693 0 128 0C57.3074 0 0 57.3074 0 128C0 198.693 57.3074 256 128 256Z" fill="#0098EA"/>
<path d="M171.704 71.4409H84.2906C68.2184 71.4409 58.0314 88.7781 66.1173 102.794L120.066 196.301C123.586 202.407 132.409 202.407 135.929 196.301L189.888 102.794C197.963 88.8005 187.776 71.4409 171.715 71.4409H171.704ZM120.022 168.26L108.273 145.521L79.9235 94.8178C78.0533 91.5726 80.3633 87.4139 84.2796 87.4139H120.011V168.271L120.022 168.26ZM176.049 94.8069L147.711 145.532L135.962 168.26V87.403H171.693C175.609 87.403 177.919 91.5616 176.049 94.8069Z" fill="white"/>
</g>
<defs>
<clipPath id="clip0_231_1267">
<rect width="256" height="256" fill="white"/>
</clipPath>
</defs>
</svg>
